<?xml version="1.0" encoding="UTF-8" standalone="no"?>
<!-- Created with Inkscape (http://www.inkscape.org/) -->

<svg
   width="240mm"
   height="120mm"
   viewBox="0 0 240 120"
   version="1.1"
   id="svg8"
   inkscape:version="1.1.2 (b8e25be8, 2022-02-05)"
   sodipodi:docname="ktestnotefigure_1.svg"
   xmlns:inkscape="http://www.inkscape.org/namespaces/inkscape"
   xmlns:sodipodi="http://sodipodi.sourceforge.net/DTD/sodipodi-0.dtd"
   xmlns:xlink="http://www.w3.org/1999/xlink"
   xmlns="http://www.w3.org/2000/svg"
   xmlns:svg="http://www.w3.org/2000/svg"
   xmlns:rdf="http://www.w3.org/1999/02/22-rdf-syntax-ns#"
   xmlns:cc="http://creativecommons.org/ns#"
   xmlns:dc="http://purl.org/dc/elements/1.1/">
  <defs
     id="defs2">
    <inkscape:path-effect
       effect="spiro"
       id="path-effect1623"
       is_visible="true"
       lpeversion="1" />
    <linearGradient
       inkscape:collect="always"
       id="linearGradient1388">
      <stop
         style="stop-color:#81ff00;stop-opacity:1;"
         offset="0"
         id="stop1384" />
      <stop
         style="stop-color:#81ff00;stop-opacity:0;"
         offset="1"
         id="stop1386" />
    </linearGradient>
    <linearGradient
       inkscape:collect="always"
       xlink:href="#linearGradient1388"
       id="linearGradient1390"
       x1="62.344734"
       y1="403.99963"
       x2="741.16388"
       y2="416.06754"
       gradientUnits="userSpaceOnUse" />
    <linearGradient
       inkscape:collect="always"
       xlink:href="#linearGradient1388"
       id="linearGradient1392"
       x1="-70.402115"
       y1="409.02789"
       x2="608.41699"
       y2="421.09579"
       gradientUnits="userSpaceOnUse" />
    <linearGradient
       inkscape:collect="always"
       xlink:href="#linearGradient1388"
       id="linearGradient1394"
       x1="187.04633"
       y1="405.00528"
       x2="865.86548"
       y2="417.07318"
       gradientUnits="userSpaceOnUse" />
  </defs>
  <sodipodi:namedview
     id="base"
     pagecolor="#ffffff"
     bordercolor="#666666"
     borderopacity="1.0"
     inkscape:pageopacity="0.0"
     inkscape:pageshadow="2"
     inkscape:zoom="0.99437388"
     inkscape:cx="556.12885"
     inkscape:cy="226.77587"
     inkscape:document-units="mm"
     inkscape:current-layer="layer1"
     showgrid="false"
     showborder="true"
     width="200mm"
     showguides="true"
     inkscape:guide-bbox="true"
     inkscape:window-width="1385"
     inkscape:window-height="847"
     inkscape:window-x="55"
     inkscape:window-y="25"
     inkscape:window-maximized="0"
     inkscape:pagecheckerboard="0">
    <inkscape:grid
       type="xygrid"
       id="grid815"
       units="mm"
       spacingx="10"
       spacingy="10"
       empspacing="4"
       dotted="false" />
  </sodipodi:namedview>
  <metadata
     id="metadata5">
    <rdf:RDF>
      <cc:Work
         rdf:about="">
        <dc:format>image/svg+xml</dc:format>
        <dc:type
           rdf:resource="http://purl.org/dc/dcmitype/StillImage" />
        <dc:title />
      </cc:Work>
    </rdf:RDF>
  </metadata>
  <g
     inkscape:label="Layer 1"
     inkscape:groupmode="layer"
     id="layer1"
     transform="translate(0,-177)">
    <rect
       style="fill:#dd00ff;fill-rule:evenodd;stroke-width:0.264583;fill-opacity:1"
       id="rect30"
       width="110.42334"
       height="29.800997"
       x="70.245201"
       y="204.67235" />
    <path
       sodipodi:type="star"
       style="fill:url(#linearGradient1392);fill-rule:evenodd;fill-opacity:1"
       id="path54-4"
       inkscape:flatsided="false"
       sodipodi:sides="5"
       sodipodi:cx="247.39186"
       sodipodi:cy="275.55029"
       sodipodi:r1="38.805889"
       sodipodi:r2="19.402945"
       sodipodi:arg1="-1.0259324"
       sodipodi:arg2="-0.39761388"
       inkscape:rounded="0"
       inkscape:randomized="0"
       transform="matrix(0.26458333,0,0,0.26458333,90.734996,146.20741)"
       inkscape:transform-center-x="-0.2644766"
       inkscape:transform-center-y="0.72550247"
       d="m 267.50502,242.36358 -2.22389,25.67351 19.88848,16.3867 -25.10418,5.81851 -9.4388,23.97883 -13.29135,-22.07748 -25.72197,-1.56696 16.88968,-19.46314 -6.45826,-24.94727 23.72974,10.0486 z" />
    <path
       sodipodi:type="star"
       style="fill:url(#linearGradient1394);fill-rule:evenodd;fill-opacity:1"
       id="path54-8"
       inkscape:flatsided="false"
       sodipodi:sides="5"
       sodipodi:cx="247.39186"
       sodipodi:cy="275.55029"
       sodipodi:r1="38.805889"
       sodipodi:r2="19.402945"
       sodipodi:arg1="-1.0259324"
       sodipodi:arg2="-0.39761388"
       inkscape:rounded="0"
       inkscape:randomized="0"
       transform="matrix(0.26458333,0,0,0.26458333,22.618431,147.27173)"
       inkscape:transform-center-x="-0.2644766"
       inkscape:transform-center-y="0.72550247"
       d="m 267.50502,242.36358 -2.22389,25.67351 19.88848,16.3867 -25.10418,5.81851 -9.4388,23.97883 -13.29135,-22.07748 -25.72197,-1.56696 16.88968,-19.46314 -6.45826,-24.94727 23.72974,10.0486 z" />
    <path
       sodipodi:type="star"
       style="fill:url(#linearGradient1390);fill-rule:evenodd;fill-opacity:1"
       id="path54-5"
       inkscape:flatsided="false"
       sodipodi:sides="5"
       sodipodi:cx="247.39186"
       sodipodi:cy="275.55029"
       sodipodi:r1="38.805889"
       sodipodi:r2="19.402945"
       sodipodi:arg1="-1.0259324"
       sodipodi:arg2="-0.39761388"
       inkscape:rounded="0"
       inkscape:randomized="0"
       transform="matrix(0.26458333,0,0,0.26458333,55.612393,147.53781)"
       inkscape:transform-center-x="-0.2644766"
       inkscape:transform-center-y="0.72550247"
       d="m 267.50502,242.36358 -2.22389,25.67351 19.88848,16.3867 -25.10418,5.81851 -9.4388,23.97883 -13.29135,-22.07748 -25.72197,-1.56696 16.88968,-19.46314 -6.45826,-24.94727 23.72974,10.0486 z" />
    <path
       style="fill:none;stroke:#000000;stroke-width:0.264583px;stroke-linecap:butt;stroke-linejoin:miter;stroke-opacity:1"
       d="m 64.125359,256.02586 c 2.488047,-3.37113 6.016009,-5.96351 9.976483,-7.33082 3.960475,-1.3673 8.336359,-1.50363 12.374266,-0.38551 6.524245,1.8066 11.807461,6.70005 15.698732,12.23969 0.76538,1.0896 1.49154,2.21456 2.39473,3.19297 2.22301,2.40813 5.42651,3.78216 8.68259,4.15472 3.25609,0.37256 6.56593,-0.19711 9.67695,-1.22784 4.2667,-1.41363 8.20212,-3.67468 11.97362,-6.11985 2.51835,-1.63271 4.97802,-3.35377 7.45024,-5.05552 2.82023,-1.94131 5.68302,-3.87185 8.85012,-5.17258 3.16709,-1.30072 6.69649,-1.94321 10.04159,-1.21335 2.58129,0.56321 4.91436,1.90172 7.24134,3.15288 2.32699,1.25116 4.76269,2.45316 7.39307,2.70089 2.82523,0.26608 5.74307,-0.64498 7.91496,-2.47134 2.17189,-1.82637 3.57002,-4.54465 3.79258,-7.37364"
       id="path1621"
       inkscape:path-effect="#path-effect1623"
       inkscape:original-d="m 64.125359,256.02586 c 4.694225,-8.71785 3.11217,-7.89447 22.350749,-7.71633 5.24202,0.0485 13.072635,9.32969 15.698732,12.23969 0.89132,0.98769 1.25952,2.49923 2.39473,3.19297 4.68996,2.86608 13.36912,4.18883 18.35954,2.92688 4.34552,-1.09887 8.08845,-3.88454 11.97362,-6.11985 2.60137,-1.49668 4.84201,-3.57083 7.45024,-5.05552 5.63774,-3.20917 12.09191,-6.60528 18.89171,-6.38593 8.57273,0.27654 6.69393,3.64808 14.63441,5.85377 9.72456,2.70126 10.94665,-2.23605 11.70754,-9.84498" />
  </g>
</svg>
