<?xml version="1.0" standalone="no"?><?xml-stylesheet type="text/css" href="https://www.processon.com/themes/default/mind/icons/icons.css" ?><!DOCTYPE svg PUBLIC "-//W3C//DTD SVG 1.1//EN" "http://www.w3.org/Graphics/SVG/1.1/DTD/svg11.dtd">
<svg xmlns="http://www.w3.org/2000/svg" version="1.1" xlink="http://www.w3.org/1999/xlink" id="mind-svg-con" width="606.9375px" height="330px" style="position: absolute; left: 0px; top: 0px; width: 606.9375px; height: 330px; background-color: rgb(255, 255, 255); z-index: 999;"><defs></defs><g id="svgbackgroundid"><defs></defs><rect x="0" y="0" width="606.9375" height="330" fill="#ffffff"></rect></g><g transform="translate(-9873.5, -9776)" id="sdjakdjak4"><defs></defs><g class="svg-topic-con" transform="translate(0.5,0.5)"><path part="right" sub="true" id="line_89bc019ac025" d="M 10000 9941.5 L 10084.5 9941.5 C 10124.5 9941.5 10124.5 9843 10191.5 9843" stroke="#0D0B22" fill="none" stroke-width="2"></path><path part="right" sub="true" id="line_1f9ff6e56023" d="M 10000 9941.5 L 10084.5 9941.5 C 10124.5 9941.5 10124.5 9941 10191.5 9941" stroke="#0D0B22" fill="none" stroke-width="2"></path><path part="right" sub="true" id="line_13df792f3b4f" d="M 10000 9941.5 L 10084.5 9941.5 C 10124.5 9941.5 10124.5 10039 10191.5 10039" stroke="#0D0B22" fill="none" stroke-width="2"></path></g><g class="svg-connection-con" transform="translate(0.5,0.5)"></g><g class="svg-freesums-con" transform="translate(0.5,0.5)"></g><g class="svg-freebos-con" transform="translate(0.5,0.5)"></g></g><g id="13df792f3b4f"><rect x="318" y="241.640625" rx="7px" ry="7px" width="127" height="44" style="fill: #F3F3F4; stroke:none;"></rect><g><text text-anchor="start" align="top" anchor="start" font-size="16px" font-weight="normal" fill="rgb(13, 11, 34)" style="font-size:16px;font-family:微软雅黑;color:#0D0B22;font-style:normal;text-align:left;font-weight:normal;font-style: normal;"><tspan x="340" y="269.515625"><tspan>Main Topic</tspan></tspan></text></g></g><g id="a3d562716144"><rect x="500.9375" y="226" rx="1px" ry="1px" width="76" height="29" style="fill: transparent; stroke:none;"></rect><g><text text-anchor="start" align="top" anchor="start" font-size="14px" font-weight="400" fill="rgb(13, 11, 34)" style="font-size:14px;font-family:微软雅黑;color:#0D0B22;font-style:normal;text-align:left;font-weight:400;font-style: normal;"><tspan x="509.9375" y="246"><tspan>Subtopic</tspan></tspan></text></g></g><g id="3c7590ed08e6"><rect x="500.9375" y="271" rx="1px" ry="1px" width="76" height="29" style="fill: transparent; stroke:none;"></rect><g><text text-anchor="start" align="top" anchor="start" font-size="14px" font-weight="400" fill="rgb(13, 11, 34)" style="font-size:14px;font-family:微软雅黑;color:#0D0B22;font-style:normal;text-align:left;font-weight:400;font-style: normal;"><tspan x="509.9375" y="291"><tspan>Subtopic</tspan></tspan></text></g></g><g id="1f9ff6e56023"><rect x="318" y="143.640625" rx="7px" ry="7px" width="127" height="44" style="fill: #F3F3F4; stroke:none;"></rect><g><text text-anchor="start" align="top" anchor="start" font-size="16px" font-weight="normal" fill="rgb(13, 11, 34)" style="font-size:16px;font-family:微软雅黑;color:#0D0B22;font-style:normal;text-align:left;font-weight:normal;font-style: normal;"><tspan x="340" y="171.515625"><tspan>Main Topic</tspan></tspan></text></g></g><g id="6025e6f1a0c1"><rect x="500.9375" y="128" rx="1px" ry="1px" width="76" height="29" style="fill: transparent; stroke:none;"></rect><g><text text-anchor="start" align="top" anchor="start" font-size="14px" font-weight="400" fill="rgb(13, 11, 34)" style="font-size:14px;font-family:微软雅黑;color:#0D0B22;font-style:normal;text-align:left;font-weight:400;font-style: normal;"><tspan x="509.9375" y="148"><tspan>Subtopic</tspan></tspan></text></g></g><g id="7e15c52c9310"><rect x="500.9375" y="173" rx="1px" ry="1px" width="76" height="29" style="fill: transparent; stroke:none;"></rect><g><text text-anchor="start" align="top" anchor="start" font-size="14px" font-weight="400" fill="rgb(13, 11, 34)" style="font-size:14px;font-family:微软雅黑;color:#0D0B22;font-style:normal;text-align:left;font-weight:400;font-style: normal;"><tspan x="509.9375" y="193"><tspan>Subtopic</tspan></tspan></text></g></g><g id="89bc019ac025"><rect x="318" y="45.640625" rx="7px" ry="7px" width="127" height="44" style="fill: #F3F3F4; stroke:none;"></rect><g><text text-anchor="start" align="top" anchor="start" font-size="16px" font-weight="normal" fill="rgb(13, 11, 34)" style="font-size:16px;font-family:微软雅黑;color:#0D0B22;font-style:normal;text-align:left;font-weight:normal;font-style: normal;"><tspan x="340" y="73.515625"><tspan>Main Topic</tspan></tspan></text></g></g><g id="61bf5a0f0c70"><rect x="500.9375" y="30" rx="1px" ry="1px" width="76" height="29" style="fill: transparent; stroke:none;"></rect><g><text text-anchor="start" align="top" anchor="start" font-size="14px" font-weight="400" fill="rgb(13, 11, 34)" style="font-size:14px;font-family:微软雅黑;color:#0D0B22;font-style:normal;text-align:left;font-weight:400;font-style: normal;"><tspan x="509.9375" y="49.890625"><tspan>Subtopic</tspan></tspan></text></g></g><g id="d42fb75f37ce"><rect x="500.9375" y="75" rx="1px" ry="1px" width="76" height="29" style="fill: transparent; stroke:none;"></rect><g><text text-anchor="start" align="top" anchor="start" font-size="14px" font-weight="400" fill="rgb(13, 11, 34)" style="font-size:14px;font-family:微软雅黑;color:#0D0B22;font-style:normal;text-align:left;font-weight:400;font-style: normal;"><tspan x="509.9375" y="95"><tspan>Subtopic</tspan></tspan></text></g></g><g transform="translate(318, 226)" id="sdjakdjak0"><g id="subline_13df792f3b4f" transform="translate(0.5,0.5)"><path id="line_a3d562716144" d="M 126.9375 37 L 126.9375 37 C 151.9375 37 151.9375 14.4375 182.9375 14.4375" p="13df792f3b4f" stroke="#0D0B22" stroke-linecap="round" fill="none" stroke-width="2"></path><path id="line_3c7590ed08e6" d="M 126.9375 37 L 126.9375 37 C 151.9375 37 151.9375 59.4375 182.9375 59.4375" p="13df792f3b4f" stroke="#0D0B22" stroke-linecap="round" fill="none" stroke-width="2"></path></g><g transform="translate(0.5,0.5)"></g><g class="svg-summary-con" transform="translate(0.5,0.5)"></g><g class="svg-boundary-con" transform="translate(0.5,0.5)"></g></g><g transform="translate(318, 128)" id="sdjakdjak1"><g id="subline_1f9ff6e56023" transform="translate(0.5,0.5)"><path id="line_6025e6f1a0c1" d="M 126.9375 37 L 126.9375 37 C 151.9375 37 151.9375 14.4375 182.9375 14.4375" p="1f9ff6e56023" stroke="#0D0B22" stroke-linecap="round" fill="none" stroke-width="2"></path><path id="line_7e15c52c9310" d="M 126.9375 37 L 126.9375 37 C 151.9375 37 151.9375 59.4375 182.9375 59.4375" p="1f9ff6e56023" stroke="#0D0B22" stroke-linecap="round" fill="none" stroke-width="2"></path></g><g transform="translate(0.5,0.5)"></g><g class="svg-summary-con" transform="translate(0.5,0.5)"></g><g class="svg-boundary-con" transform="translate(0.5,0.5)"></g></g><g transform="translate(318, 30)" id="sdjakdjak2"><g id="subline_89bc019ac025" transform="translate(0.5,0.5)"><path id="line_61bf5a0f0c70" d="M 126.9375 37 L 126.9375 37 C 151.9375 37 151.9375 14.4375 182.9375 14.4375" p="89bc019ac025" stroke="#0D0B22" stroke-linecap="round" fill="none" stroke-width="2"></path><path id="line_d42fb75f37ce" d="M 126.9375 37 L 126.9375 37 C 151.9375 37 151.9375 59.4375 182.9375 59.4375" p="89bc019ac025" stroke="#0D0B22" stroke-linecap="round" fill="none" stroke-width="2"></path></g><g transform="translate(0.5,0.5)"></g><g class="svg-summary-con" transform="translate(0.5,0.5)"></g><g class="svg-boundary-con" transform="translate(0.5,0.5)"></g></g><g transform="translate(30, 137)" id="sdjakdjak3"><g id="subline_root" transform="translate(0.5,0.5)"></g><g transform="translate(0.5,0.5)"></g><g class="svg-summary-con" transform="translate(0.5,0.5)"></g><g class="svg-boundary-con" transform="translate(0.5,0.5)"></g></g><g id="root"><rect x="30" y="137" rx="7px" ry="7px" width="193" height="57" style="fill: rgb(13, 11, 34); stroke:none;"></rect><g><text text-anchor="start" align="top" anchor="start" font-size="18px" font-weight="normal" fill="rgb(255, 255, 255)" style="font-size:18px;font-family:微软雅黑;color:#fff;font-style:normal;text-align:left;font-weight:normal;font-style: normal;"><tspan x="70" y="172"><tspan>Central Topic</tspan></tspan></text></g></g></svg>
